<svg width="34" height="42" viewBox="0 0 34 42" fill="none" xmlns="http://www.w3.org/2000/svg">
<path d="M26.6562 1.875C26.8635 1.875 27.0622 1.97377 27.2087 2.14959C27.3552 2.3254 27.4375 2.56386 27.4375 2.8125V19.6875C27.4375 19.9361 27.3552 20.1746 27.2087 20.3504C27.0622 20.5262 26.8635 20.625 26.6562 20.625H6.34375C6.13655 20.625 5.93784 20.5262 5.79132 20.3504C5.64481 20.1746 5.5625 19.9361 5.5625 19.6875V2.8125C5.5625 2.56386 5.64481 2.3254 5.79132 2.14959C5.93784 1.97377 6.13655 1.875 6.34375 1.875H26.6562ZM6.34375 0C5.72215 0 5.12601 0.296316 4.68647 0.823762C4.24693 1.35121 4 2.06658 4 2.8125V19.6875C4 20.4334 4.24693 21.1488 4.68647 21.6762C5.12601 22.2037 5.72215 22.5 6.34375 22.5H26.6562C27.2779 22.5 27.874 22.2037 28.3135 21.6762C28.7531 21.1488 29 20.4334 29 19.6875V2.8125C29 2.06658 28.7531 1.35121 28.3135 0.823762C27.874 0.296316 27.2779 0 26.6562 0H6.34375Z" fill="#E0A64E"/>
<path d="M8.6875 12.1875C8.6875 11.9389 8.76981 11.7004 8.91632 11.5246C9.06284 11.3488 9.26155 11.25 9.46875 11.25H23.5312C23.7385 11.25 23.9372 11.3488 24.0837 11.5246C24.2302 11.7004 24.3125 11.9389 24.3125 12.1875C24.3125 12.4361 24.2302 12.6746 24.0837 12.8504C23.9372 13.0262 23.7385 13.125 23.5312 13.125H9.46875C9.26155 13.125 9.06284 13.0262 8.91632 12.8504C8.76981 12.6746 8.6875 12.4361 8.6875 12.1875ZM8.6875 15.9375C8.6875 15.6889 8.76981 15.4504 8.91632 15.2746C9.06284 15.0988 9.26155 15 9.46875 15H18.8438C19.051 15 19.2497 15.0988 19.3962 15.2746C19.5427 15.4504 19.625 15.6889 19.625 15.9375C19.625 16.1861 19.5427 16.4246 19.3962 16.6004C19.2497 16.7762 19.051 16.875 18.8438 16.875H9.46875C9.26155 16.875 9.06284 16.7762 8.91632 16.6004C8.76981 16.4246 8.6875 16.1861 8.6875 15.9375ZM8.6875 6.5625C8.6875 6.31386 8.76981 6.0754 8.91632 5.89959C9.06284 5.72377 9.26155 5.625 9.46875 5.625H23.5312C23.7385 5.625 23.9372 5.72377 24.0837 5.89959C24.2302 6.0754 24.3125 6.31386 24.3125 6.5625V8.4375C24.3125 8.68614 24.2302 8.9246 24.0837 9.10041C23.9372 9.27623 23.7385 9.375 23.5312 9.375H9.46875C9.26155 9.375 9.06284 9.27623 8.91632 9.10041C8.76981 8.9246 8.6875 8.68614 8.6875 8.4375V6.5625Z" fill="#E0A64E"/>
<path d="M2.752 34.432C3.17867 34.432 3.552 34.52 3.872 34.696C4.192 34.872 4.43733 35.1253 4.608 35.456C4.784 35.7813 4.872 36.168 4.872 36.616H4.088C4.088 36.152 3.97333 35.792 3.744 35.536C3.51467 35.2747 3.184 35.144 2.752 35.144C2.272 35.144 1.90667 35.2933 1.656 35.592C1.40533 35.8853 1.28 36.32 1.28 36.896V37.616C1.28 38.1867 1.40267 38.6213 1.648 38.92C1.89333 39.2187 2.256 39.368 2.736 39.368C3.184 39.368 3.52533 39.24 3.76 38.984C4 38.728 4.12 38.3707 4.12 37.912H4.872C4.872 38.3547 4.784 38.7387 4.608 39.064C4.43733 39.3893 4.192 39.64 3.872 39.816C3.552 39.992 3.17867 40.08 2.752 40.08C2.04267 40.08 1.488 39.864 1.088 39.432C0.693333 38.9947 0.496 38.3893 0.496 37.616V36.896C0.496 36.128 0.693333 35.5253 1.088 35.088C1.488 34.6507 2.04267 34.432 2.752 34.432ZM7.60069 35.832C8.17135 35.832 8.62735 36.008 8.96869 36.36C9.31002 36.712 9.48069 37.1947 9.48069 37.808V38.104C9.48069 38.7173 9.31269 39.2 8.97669 39.552C8.64069 39.904 8.18202 40.08 7.60069 40.08C7.01935 40.08 6.56069 39.904 6.22469 39.552C5.88869 39.2 5.72069 38.7173 5.72069 38.104V37.808C5.72069 37.1947 5.89135 36.712 6.23269 36.36C6.57402 36.008 7.03002 35.832 7.60069 35.832ZM7.60069 36.432C7.24335 36.432 6.96602 36.5547 6.76869 36.8C6.57135 37.0453 6.47269 37.4053 6.47269 37.88V38.032C6.47269 38.496 6.56869 38.8533 6.76069 39.104C6.95802 39.3547 7.23802 39.48 7.60069 39.48C7.95269 39.48 8.22735 39.3573 8.42469 39.112C8.62735 38.8613 8.72869 38.5013 8.72869 38.032V37.88C8.72869 37.416 8.63002 37.0587 8.43269 36.808C8.24069 36.5573 7.96335 36.432 7.60069 36.432ZM12.5784 35.832C13.0264 35.832 13.3784 35.952 13.6344 36.192C13.8904 36.432 14.0184 36.784 14.0184 37.248V40H13.2664V37.384C13.2664 36.7493 12.9784 36.432 12.4024 36.432C12.2104 36.432 12.0318 36.4827 11.8664 36.584C11.7011 36.6853 11.5678 36.824 11.4664 37C11.3651 37.1707 11.3144 37.36 11.3144 37.568V40H10.5624V35.912H11.1064L11.2104 36.512C11.5518 36.0587 12.0078 35.832 12.5784 35.832ZM16.1456 35.912H17.0976V36.512H16.1456V38.952C16.1456 39.144 16.1829 39.2827 16.2576 39.368C16.3322 39.4533 16.4469 39.496 16.6016 39.496C16.7402 39.496 16.9056 39.456 17.0976 39.376V39.936C16.9056 40.032 16.6576 40.08 16.3536 40.08C16.0389 40.08 15.7989 39.9867 15.6336 39.8C15.4736 39.6133 15.3936 39.3173 15.3936 38.912V36.512H14.9456V35.912H15.4176L15.6736 34.608H16.1456V35.912ZM19.6392 35.832C20.1779 35.832 20.5779 35.9387 20.8392 36.152C21.1059 36.3653 21.2392 36.6747 21.2392 37.08V39.2C21.2392 39.296 21.2605 39.368 21.3032 39.416C21.3459 39.4587 21.3992 39.48 21.4632 39.48C21.5859 39.48 21.7085 39.4427 21.8312 39.368V39.92C21.6499 40.0267 21.4445 40.08 21.2152 40.08C20.9859 40.08 20.8152 40.016 20.7032 39.888C20.5912 39.7547 20.5299 39.5733 20.5192 39.344C20.1885 39.8347 19.7112 40.08 19.0872 40.08C18.6392 40.08 18.3032 39.984 18.0792 39.792C17.8605 39.5947 17.7512 39.2853 17.7512 38.864C17.7512 38.5333 17.8365 38.2747 18.0072 38.088C18.1779 37.896 18.4605 37.7573 18.8552 37.672C19.2499 37.5867 19.7939 37.544 20.4872 37.544V37.168C20.4872 36.896 20.4072 36.7067 20.2472 36.6C20.0872 36.488 19.8552 36.432 19.5512 36.432C19.2632 36.432 19.0392 36.488 18.8792 36.6C18.7192 36.712 18.6392 36.8693 18.6392 37.072V37.168H17.9032C17.8925 37.0933 17.8872 37.0053 17.8872 36.904C17.8872 36.7173 17.9619 36.5413 18.1112 36.376C18.2605 36.2107 18.4632 36.08 18.7192 35.984C18.9752 35.8827 19.2579 35.832 19.5672 35.832H19.6392ZM20.4872 38.128C19.9272 38.128 19.5032 38.1573 19.2152 38.216C18.9325 38.2693 18.7432 38.352 18.6472 38.464C18.5512 38.576 18.5032 38.7307 18.5032 38.928C18.5032 39.296 18.7832 39.48 19.3432 39.48C19.5405 39.48 19.7272 39.432 19.9032 39.336C20.0792 39.2347 20.2205 39.0933 20.3272 38.912C20.4339 38.7307 20.4872 38.5227 20.4872 38.288V38.128ZM24.3109 35.832C24.6362 35.832 24.9269 35.904 25.1829 36.048C25.4442 36.1867 25.6469 36.384 25.7909 36.64C25.9349 36.896 26.0069 37.1893 26.0069 37.52H25.2629C25.2629 37.1893 25.1775 36.9253 25.0069 36.728C24.8415 36.5307 24.6015 36.432 24.2869 36.432C23.9562 36.432 23.6922 36.544 23.4949 36.768C23.3029 36.9867 23.2069 37.288 23.2069 37.672V38.104C23.2069 38.568 23.3029 38.9147 23.4949 39.144C23.6869 39.368 23.9589 39.48 24.3109 39.48C24.6362 39.48 24.8789 39.384 25.0389 39.192C25.2042 38.9947 25.2869 38.7307 25.2869 38.4H26.0069C26.0069 38.912 25.8522 39.32 25.5429 39.624C25.2389 39.928 24.8309 40.08 24.3189 40.08H24.2549C23.8922 40.08 23.5749 39.9973 23.3029 39.832C23.0309 39.6613 22.8202 39.424 22.6709 39.12C22.5269 38.816 22.4549 38.4613 22.4549 38.056V37.864C22.4549 37.4587 22.5295 37.104 22.6789 36.8C22.8282 36.4907 23.0389 36.2533 23.3109 36.088C23.5829 35.9173 23.8949 35.832 24.2469 35.832H24.3109ZM27.9424 35.912H28.8944V36.512H27.9424V38.952C27.9424 39.144 27.9798 39.2827 28.0544 39.368C28.1291 39.4533 28.2438 39.496 28.3984 39.496C28.5371 39.496 28.7024 39.456 28.8944 39.376V39.936C28.7024 40.032 28.4544 40.08 28.1504 40.08C27.8358 40.08 27.5958 39.9867 27.4304 39.8C27.2704 39.6133 27.1904 39.3173 27.1904 38.912V36.512H26.7424V35.912H27.2144L27.4704 34.608H27.9424V35.912ZM31.3881 35.832C31.6921 35.832 31.9614 35.88 32.1961 35.976C32.4361 36.072 32.6201 36.2053 32.7481 36.376C32.8814 36.5467 32.9481 36.736 32.9481 36.944L32.9401 37.088H32.1961V37.016C32.1961 36.6267 31.8947 36.432 31.2921 36.432C30.6947 36.432 30.3961 36.6107 30.3961 36.968C30.3961 37.1333 30.4814 37.256 30.6521 37.336C30.8227 37.4107 31.0841 37.4827 31.4361 37.552C31.7721 37.6213 32.0467 37.6933 32.2601 37.768C32.4787 37.8427 32.6627 37.96 32.8121 38.12C32.9667 38.28 33.0441 38.496 33.0441 38.768C33.0441 39.2053 32.8947 39.5333 32.5961 39.752C32.2974 39.9707 31.8681 40.08 31.3081 40.08H31.1881C30.8521 40.08 30.5587 40.0293 30.3081 39.928C30.0574 39.8213 29.8627 39.68 29.7241 39.504C29.5907 39.3227 29.5267 39.12 29.5321 38.896V38.72H30.2761V38.8C30.2761 39.2533 30.6574 39.48 31.4201 39.48C31.6441 39.48 31.8441 39.4293 32.0201 39.328C32.2014 39.2267 32.2921 39.088 32.2921 38.912C32.2921 38.7627 32.2414 38.6453 32.1401 38.56C32.0441 38.4747 31.9241 38.4107 31.7801 38.368C31.6361 38.3253 31.4361 38.2827 31.1801 38.24C30.8494 38.176 30.5827 38.112 30.3801 38.048C30.1774 37.9787 30.0041 37.864 29.8601 37.704C29.7161 37.544 29.6441 37.3253 29.6441 37.048C29.6441 36.6693 29.7934 36.3733 30.0921 36.16C30.3907 35.9413 30.7987 35.832 31.3161 35.832H31.3881Z" fill="#E0A64E"/>
</svg>
