<svg width="23" height="22" viewBox="0 0 23 22" fill="none" xmlns="http://www.w3.org/2000/svg">
<path fill-rule="evenodd" clip-rule="evenodd" d="M5.75 10.9999C5.75 10.8176 5.82573 10.6427 5.96052 10.5138C6.09531 10.3848 6.27813 10.3124 6.46875 10.3124H14.7962L11.7099 7.36164C11.5749 7.23255 11.4991 7.05746 11.4991 6.87489C11.4991 6.69233 11.5749 6.51724 11.7099 6.38814C11.8448 6.25905 12.0279 6.18652 12.2188 6.18652C12.4096 6.18652 12.5927 6.25905 12.7276 6.38814L17.0401 10.5131C17.1071 10.577 17.1602 10.6529 17.1964 10.7364C17.2326 10.8199 17.2513 10.9095 17.2513 10.9999C17.2513 11.0903 17.2326 11.1799 17.1964 11.2634C17.1602 11.3469 17.1071 11.4228 17.0401 11.4866L12.7276 15.6116C12.5927 15.7407 12.4096 15.8133 12.2188 15.8133C12.0279 15.8133 11.8448 15.7407 11.7099 15.6116C11.5749 15.4825 11.4991 15.3075 11.4991 15.1249C11.4991 14.9423 11.5749 14.7672 11.7099 14.6381L14.7962 11.6874H6.46875C6.27813 11.6874 6.09531 11.615 5.96052 11.486C5.82573 11.3571 5.75 11.1822 5.75 10.9999Z" fill="#8D4337"/>
</svg>
