<svg width="115" height="22" viewBox="0 0 115 22" fill="none" xmlns="http://www.w3.org/2000/svg">
<path d="M0.728 17V0.535999H12.32L11.912 3.488H4.376V7.088H11.408V10.04H4.376V14.048H11.984L12.392 17H0.728ZM21.5518 4.496C22.3358 4.496 23.0398 4.664 23.6638 5C24.2878 5.336 24.7678 5.824 25.1038 6.464C25.9358 5.152 27.1278 4.496 28.6798 4.496C29.8318 4.496 30.7838 4.848 31.5358 5.552C32.3038 6.24 32.6878 7.2 32.6878 8.432V17H29.1838V9.128C29.1838 8.456 29.0398 7.944 28.7518 7.592C28.4638 7.224 28.0638 7.04 27.5518 7.04C26.9918 7.04 26.5198 7.264 26.1358 7.712C25.7518 8.16 25.5598 8.72 25.5598 9.392V17H22.0558V9.128C22.0558 8.472 21.9038 7.96 21.5998 7.592C21.3118 7.224 20.9118 7.04 20.3997 7.04C19.8398 7.04 19.3678 7.264 18.9838 7.712C18.6158 8.16 18.4318 8.72 18.4318 9.392V17H14.9277V4.736H17.5678C17.6638 5.136 17.7918 5.736 17.9518 6.536C18.3838 5.848 18.9038 5.336 19.5117 5C20.1358 4.664 20.8158 4.496 21.5518 4.496ZM38.9306 6.272C39.8266 5.088 40.9786 4.496 42.3866 4.496C43.3466 4.496 44.2106 4.728 44.9786 5.192C45.7466 5.656 46.3546 6.36 46.8026 7.304C47.2506 8.248 47.4746 9.416 47.4746 10.808V11.072C47.4746 12.4 47.2666 13.528 46.8506 14.456C46.4346 15.384 45.8666 16.08 45.1466 16.544C44.4426 17.008 43.6426 17.24 42.7466 17.24C41.9786 17.24 41.2986 17.08 40.7066 16.76C40.1306 16.44 39.6666 16.048 39.3146 15.584V21.344H35.8106V4.736H38.5706L38.9306 6.272ZM43.9226 9.8C43.9226 8.856 43.7066 8.136 43.2746 7.64C42.8426 7.144 42.2906 6.896 41.6186 6.896C40.9466 6.896 40.3946 7.144 39.9626 7.64C39.5306 8.136 39.3146 8.856 39.3146 9.8V11.792C39.3146 12.72 39.5306 13.44 39.9626 13.952C40.3946 14.448 40.9466 14.696 41.6186 14.696C42.2906 14.696 42.8426 14.448 43.2746 13.952C43.7066 13.44 43.9226 12.72 43.9226 11.792V9.8ZM56.732 16.784C56.412 16.912 55.988 17.016 55.46 17.096C54.948 17.192 54.492 17.24 54.092 17.24C52.86 17.24 51.932 16.976 51.308 16.448C50.684 15.92 50.372 15.04 50.372 13.808V7.136H49.028V4.736H50.492L51.716 0.823999H53.876V4.736H56.732V7.136H53.876V13.208C53.876 13.848 53.996 14.28 54.236 14.504C54.492 14.728 54.828 14.84 55.244 14.84C55.436 14.84 55.684 14.808 55.988 14.744C56.292 14.68 56.54 14.608 56.732 14.528V16.784ZM65.7583 16.328C65.1663 17.928 64.4383 19.184 63.5742 20.096C62.7103 21.024 61.6703 21.488 60.4543 21.488C59.6063 21.488 58.9183 21.368 58.3903 21.128V18.656C58.5823 18.736 58.8303 18.808 59.1343 18.872C59.4383 18.952 59.7263 18.992 59.9983 18.992C61.0223 18.992 61.7503 18.248 62.1823 16.76L57.5503 4.736H61.2703L63.9823 12.44H64.1263L66.6703 4.736H70.1263L65.7583 16.328ZM75.3134 10.472C75.3134 11.688 75.6414 12.632 76.2974 13.304C76.9534 13.96 77.7854 14.288 78.7934 14.288C79.9294 14.288 80.7694 13.984 81.3134 13.376C81.8574 12.752 82.1294 11.8 82.1294 10.52H85.5134C85.5134 11.928 85.2254 13.144 84.6494 14.168C84.0894 15.176 83.3134 15.944 82.3214 16.472C81.3294 16.984 80.2094 17.24 78.9614 17.24H78.6254C77.2494 17.24 76.0174 16.96 74.9294 16.4C73.8414 15.84 72.9854 15.016 72.3614 13.928C71.7374 12.824 71.4254 11.496 71.4254 9.944V7.592C71.4254 6.088 71.7374 4.784 72.3614 3.68C72.9854 2.576 73.8334 1.736 74.9054 1.16C75.9934 0.583999 77.2014 0.295999 78.5294 0.295999H78.8654C80.1454 0.295999 81.2814 0.551999 82.2734 1.064C83.2814 1.56 84.0734 2.32 84.6494 3.344C85.2254 4.352 85.5134 5.592 85.5134 7.064H81.9854C81.9854 5.816 81.7054 4.872 81.1454 4.232C80.6014 3.576 79.8094 3.248 78.7694 3.248C77.7614 3.248 76.9294 3.584 76.2734 4.256C75.6334 4.912 75.3134 5.848 75.3134 7.064V10.472ZM99.4003 14.12C99.4003 14.36 99.4723 14.544 99.6163 14.672C99.7603 14.784 99.9203 14.84 100.096 14.84C100.256 14.84 100.432 14.808 100.624 14.744C100.816 14.68 100.968 14.624 101.08 14.576V16.736C100.488 17.072 99.7843 17.24 98.9683 17.24C97.3683 17.24 96.4403 16.656 96.1843 15.488C95.1763 16.656 93.9443 17.24 92.4883 17.24C91.2403 17.24 90.2083 16.904 89.3923 16.232C88.5923 15.56 88.1923 14.584 88.1923 13.304V4.736H91.6963V12.536C91.6963 13.16 91.8723 13.68 92.2243 14.096C92.5923 14.496 93.0563 14.696 93.6163 14.696C94.2403 14.696 94.7763 14.464 95.2243 14C95.6723 13.52 95.8963 12.944 95.8963 12.272V4.736H99.4003V14.12ZM106.056 6.272C106.952 5.088 108.104 4.496 109.512 4.496C110.472 4.496 111.336 4.728 112.104 5.192C112.872 5.656 113.48 6.36 113.928 7.304C114.376 8.248 114.6 9.416 114.6 10.808V11.072C114.6 12.4 114.392 13.528 113.976 14.456C113.56 15.384 112.992 16.08 112.272 16.544C111.568 17.008 110.768 17.24 109.872 17.24C109.104 17.24 108.424 17.08 107.832 16.76C107.256 16.44 106.792 16.048 106.44 15.584V21.344H102.936V4.736H105.696L106.056 6.272ZM111.048 9.8C111.048 8.856 110.832 8.136 110.4 7.64C109.968 7.144 109.416 6.896 108.744 6.896C108.072 6.896 107.52 7.144 107.088 7.64C106.656 8.136 106.44 8.856 106.44 9.8V11.792C106.44 12.72 106.656 13.44 107.088 13.952C107.52 14.448 108.072 14.696 108.744 14.696C109.416 14.696 109.968 14.448 110.4 13.952C110.832 13.44 111.048 12.72 111.048 11.792V9.8Z" fill="#716966"/>
</svg>
