<svg width="27" height="41" viewBox="0 0 27 41" fill="none" xmlns="http://www.w3.org/2000/svg">
<path d="M12.5 7.4375C12.5 8.08397 12.2629 8.70395 11.841 9.16107C11.419 9.61819 10.8467 9.875 10.25 9.875C9.65326 9.875 9.08097 9.61819 8.65901 9.16107C8.23705 8.70395 8 8.08397 8 7.4375C8 6.79103 8.23705 6.17105 8.65901 5.71393C9.08097 5.25681 9.65326 5 10.25 5C10.8467 5 11.419 5.25681 11.841 5.71393C12.2629 6.17105 12.5 6.79103 12.5 7.4375Z" fill="#3A312E"/>
<path d="M4.25 0C3.65326 0 3.08097 0.256807 2.65901 0.713927C2.23705 1.17105 2 1.79103 2 2.4375L2 17.0625C2 17.709 2.23705 18.329 2.65901 18.7861C3.08097 19.2432 3.65326 19.5 4.25 19.5H23.75C24.3467 19.5 24.919 19.2432 25.341 18.7861C25.7629 18.329 26 17.709 26 17.0625V2.4375C26 1.79103 25.7629 1.17105 25.341 0.713927C24.919 0.256807 24.3467 0 23.75 0H4.25ZM23.75 1.625C23.9489 1.625 24.1397 1.7106 24.2803 1.86298C24.421 2.01535 24.5 2.22201 24.5 2.4375V12.1875L18.8375 9.02363C18.6968 8.94729 18.5376 8.92081 18.3822 8.94793C18.2269 8.97505 18.0834 9.0544 17.972 9.17475L12.407 15.2035L8.417 12.324C8.27294 12.2201 8.10014 12.1734 7.92791 12.1917C7.75567 12.2101 7.5946 12.2924 7.472 12.4247L3.503 16.25V17.1275C3.50121 17.1059 3.50021 17.0842 3.5 17.0625V2.4375C3.5 2.22201 3.57902 2.01535 3.71967 1.86298C3.86032 1.7106 4.05109 1.625 4.25 1.625H23.75Z" fill="#3A312E"/>
<path d="M2.752 32.932C3.17867 32.932 3.54933 33.0147 3.864 33.18C4.184 33.3453 4.42933 33.58 4.6 33.884C4.77067 34.188 4.856 34.54 4.856 34.94H4.072C4.072 34.5293 3.95733 34.212 3.728 33.988C3.504 33.7587 3.17867 33.644 2.752 33.644C2.272 33.644 1.90667 33.7933 1.656 34.092C1.40533 34.3853 1.28 34.82 1.28 35.396V36.116C1.28 36.692 1.40267 37.1293 1.648 37.428C1.89867 37.7213 2.26667 37.868 2.752 37.868C3.216 37.868 3.55467 37.7533 3.768 37.524C3.98133 37.2893 4.088 36.9187 4.088 36.412V36.308H2.536V35.604H4.856V37.476C4.856 37.9187 4.872 38.26 4.904 38.5H4.44C4.37067 38.2813 4.31733 38.0627 4.28 37.844C3.93333 38.3347 3.424 38.58 2.752 38.58C2.04267 38.58 1.488 38.364 1.088 37.932C0.693333 37.4947 0.496 36.8893 0.496 36.116V35.396C0.496 34.628 0.693333 34.0253 1.088 33.588C1.488 33.1507 2.04267 32.932 2.752 32.932ZM7.68606 34.332C8.22473 34.332 8.62473 34.4387 8.88606 34.652C9.15273 34.8653 9.28606 35.1747 9.28606 35.58V37.7C9.28606 37.796 9.3074 37.868 9.35006 37.916C9.39273 37.9587 9.44606 37.98 9.51006 37.98C9.63273 37.98 9.7554 37.9427 9.87806 37.868V38.42C9.69673 38.5267 9.4914 38.58 9.26206 38.58C9.03273 38.58 8.86206 38.516 8.75006 38.388C8.63806 38.2547 8.57673 38.0733 8.56606 37.844C8.2354 38.3347 7.75806 38.58 7.13406 38.58C6.68606 38.58 6.35006 38.484 6.12606 38.292C5.9074 38.0947 5.79806 37.7853 5.79806 37.364C5.79806 37.0333 5.8834 36.7747 6.05406 36.588C6.22473 36.396 6.5074 36.2573 6.90206 36.172C7.29673 36.0867 7.84073 36.044 8.53406 36.044V35.668C8.53406 35.396 8.45406 35.2067 8.29406 35.1C8.13406 34.988 7.90206 34.932 7.59806 34.932C7.31006 34.932 7.08606 34.988 6.92606 35.1C6.76606 35.212 6.68606 35.3693 6.68606 35.572V35.668H5.95006C5.9394 35.5933 5.93406 35.5053 5.93406 35.404C5.93406 35.2173 6.00873 35.0413 6.15806 34.876C6.3074 34.7107 6.51006 34.58 6.76606 34.484C7.02206 34.3827 7.30473 34.332 7.61406 34.332H7.68606ZM8.53406 36.628C7.97406 36.628 7.55006 36.6573 7.26206 36.716C6.9794 36.7693 6.79006 36.852 6.69406 36.964C6.59806 37.076 6.55006 37.2307 6.55006 37.428C6.55006 37.796 6.83006 37.98 7.39006 37.98C7.5874 37.98 7.77406 37.932 7.95006 37.836C8.12606 37.7347 8.2674 37.5933 8.37406 37.412C8.48073 37.2307 8.53406 37.0227 8.53406 36.788V36.628ZM11.5418 32.74V38.5H10.7898V32.74H11.5418ZM13.6824 32.74V38.5H12.9304V32.74H13.6824ZM16.679 34.332C17.015 34.332 17.311 34.404 17.567 34.548C17.8283 34.6867 18.031 34.8867 18.175 35.148C18.319 35.4093 18.391 35.7133 18.391 36.06V36.628H15.535C15.5457 37.06 15.647 37.3933 15.839 37.628C16.031 37.8627 16.3163 37.98 16.695 37.98C17.031 37.98 17.279 37.8813 17.439 37.684C17.599 37.4867 17.679 37.252 17.679 36.98H18.391C18.391 37.3 18.3163 37.58 18.167 37.82C18.023 38.06 17.8203 38.2467 17.559 38.38C17.303 38.5133 17.0097 38.58 16.679 38.58H16.647C16.071 38.58 15.615 38.396 15.279 38.028C14.9483 37.6547 14.783 37.1587 14.783 36.54V36.38C14.783 35.9747 14.8577 35.6173 15.007 35.308C15.1563 34.9987 15.3697 34.7587 15.647 34.588C15.9243 34.4173 16.2497 34.332 16.623 34.332H16.679ZM16.639 34.932C16.335 34.932 16.087 35.0253 15.895 35.212C15.7083 35.3987 15.5937 35.676 15.551 36.044H17.647V35.948C17.647 35.644 17.5537 35.3987 17.367 35.212C17.1857 35.0253 16.943 34.932 16.639 34.932ZM21.3243 34.332C21.703 34.332 21.999 34.4547 22.2123 34.7C22.4256 34.94 22.5323 35.244 22.5323 35.612L22.5083 35.916H21.8443V35.74C21.8443 35.58 21.8043 35.4387 21.7243 35.316C21.6443 35.1933 21.543 35.1 21.4203 35.036C21.2976 34.9667 21.175 34.932 21.0523 34.932C20.7963 34.932 20.5963 35.0333 20.4523 35.236C20.3083 35.4387 20.2363 35.7133 20.2363 36.06V38.5H19.4843V34.412H20.0203L20.1323 35.02C20.1643 34.9133 20.2363 34.8067 20.3483 34.7C20.4603 34.5933 20.599 34.5053 20.7643 34.436C20.935 34.3667 21.1216 34.332 21.3243 34.332ZM25.2142 38.34C25.0329 38.788 24.8649 39.1293 24.7102 39.364C24.5555 39.604 24.3982 39.7667 24.2382 39.852C24.0782 39.9427 23.8915 39.988 23.6782 39.988C23.4809 39.988 23.2942 39.9507 23.1182 39.876V39.26C23.2942 39.3347 23.4275 39.372 23.5182 39.372C23.7369 39.372 23.9182 39.2973 24.0622 39.148C24.2115 39.004 24.3342 38.7747 24.4302 38.46L22.8382 34.412H23.6382L24.8142 37.428H24.8462L26.0062 34.412H26.7422L25.2142 38.34Z" fill="#716966"/>
</svg>
