<svg width="145" height="18" viewBox="0 0 145 18" fill="none" xmlns="http://www.w3.org/2000/svg">
<path d="M7.352 14V8.852H3.086V14H0.296V1.652H3.068V6.548H7.352V1.652H10.124V14H7.352ZM21.5073 9.662C21.5073 10.586 21.3093 11.39 20.9133 12.074C20.5293 12.758 19.9953 13.28 19.3113 13.64C18.6273 14 17.8593 14.18 17.0073 14.18H16.7193C15.8673 14.18 15.0993 14 14.4153 13.64C13.7313 13.28 13.1913 12.758 12.7953 12.074C12.4113 11.39 12.2193 10.586 12.2193 9.662V9.14C12.2193 8.216 12.4113 7.412 12.7953 6.728C13.1913 6.044 13.7313 5.522 14.4153 5.162C15.0993 4.802 15.8673 4.622 16.7193 4.622H17.0073C17.8593 4.622 18.6273 4.802 19.3113 5.162C19.9953 5.522 20.5293 6.044 20.9133 6.728C21.3093 7.412 21.5073 8.216 21.5073 9.14V9.662ZM18.8433 8.672C18.8433 7.94 18.6573 7.382 18.2853 6.998C17.9253 6.614 17.4513 6.422 16.8633 6.422C16.2753 6.422 15.7953 6.614 15.4233 6.998C15.0633 7.382 14.8833 7.94 14.8833 8.672V10.13C14.8833 10.862 15.0633 11.42 15.4233 11.804C15.7953 12.188 16.2753 12.38 16.8633 12.38C17.4513 12.38 17.9253 12.188 18.2853 11.804C18.6573 11.42 18.8433 10.862 18.8433 10.13V8.672ZM31.8314 11.84C31.8314 12.02 31.8854 12.158 31.9934 12.254C32.1014 12.338 32.2214 12.38 32.3534 12.38C32.4734 12.38 32.6054 12.356 32.7494 12.308C32.8934 12.26 33.0074 12.218 33.0914 12.182V13.802C32.6474 14.054 32.1194 14.18 31.5074 14.18C30.3074 14.18 29.6114 13.742 29.4194 12.866C28.6634 13.742 27.7394 14.18 26.6474 14.18C25.7114 14.18 24.9374 13.928 24.3254 13.424C23.7254 12.92 23.4254 12.188 23.4254 11.228V4.802H26.0534V10.652C26.0534 11.12 26.1854 11.51 26.4494 11.822C26.7254 12.122 27.0734 12.272 27.4934 12.272C27.9614 12.272 28.3634 12.098 28.6994 11.75C29.0354 11.39 29.2034 10.958 29.2034 10.454V4.802H31.8314V11.84ZM36.1389 11.192C36.1389 11.612 36.3249 11.918 36.6969 12.11C37.0689 12.29 37.5309 12.38 38.0829 12.38C38.5629 12.38 38.9889 12.308 39.3609 12.164C39.7449 12.02 39.9369 11.792 39.9369 11.48C39.9369 11.144 39.7629 10.904 39.4149 10.76C39.0669 10.616 38.5269 10.49 37.7949 10.382C37.0269 10.25 36.3969 10.106 35.9049 9.95C35.4129 9.794 34.9869 9.524 34.6269 9.14C34.2789 8.756 34.1049 8.222 34.1049 7.538C34.1049 6.914 34.2849 6.386 34.6449 5.954C35.0169 5.51 35.5029 5.18 36.1029 4.964C36.7149 4.736 37.3809 4.622 38.1009 4.622H38.4609C39.0969 4.622 39.6969 4.73 40.2609 4.946C40.8369 5.15 41.2989 5.444 41.6469 5.828C41.9949 6.2 42.1689 6.626 42.1689 7.106C42.1689 7.202 42.1629 7.292 42.1509 7.376C42.1389 7.448 42.1329 7.49 42.1329 7.502H39.8289C39.8289 6.782 39.2769 6.422 38.1729 6.422C37.6689 6.422 37.2609 6.494 36.9489 6.638C36.6489 6.782 36.4989 6.98 36.4989 7.232C36.4989 7.532 36.6609 7.742 36.9849 7.862C37.3209 7.982 37.8429 8.096 38.5509 8.204C39.3549 8.336 40.0029 8.48 40.4949 8.636C40.9989 8.78 41.4369 9.05 41.8089 9.446C42.1809 9.83 42.3669 10.376 42.3669 11.084C42.3669 12.176 41.9829 12.968 41.2149 13.46C40.4469 13.94 39.4689 14.18 38.2809 14.18H37.6869C36.9429 14.18 36.2769 14.066 35.6889 13.838C35.1009 13.61 34.6389 13.286 34.3029 12.866C33.9789 12.446 33.8169 11.966 33.8169 11.426L33.8349 11.066H36.1389V11.192ZM52.718 10.562C52.718 11.366 52.526 12.044 52.142 12.596C51.758 13.136 51.248 13.538 50.612 13.802C49.988 14.054 49.304 14.18 48.56 14.18H48.272C47.42 14.18 46.652 14 45.968 13.64C45.284 13.28 44.744 12.764 44.348 12.092C43.964 11.408 43.772 10.598 43.772 9.662V9.14C43.772 8.216 43.97 7.412 44.366 6.728C44.762 6.044 45.296 5.522 45.968 5.162C46.652 4.802 47.42 4.622 48.272 4.622H48.56C49.304 4.622 49.994 4.778 50.63 5.09C51.266 5.39 51.776 5.834 52.16 6.422C52.544 6.998 52.736 7.682 52.736 8.474V9.842H46.436V10.274C46.436 10.874 46.61 11.378 46.958 11.786C47.318 12.182 47.804 12.38 48.416 12.38C48.968 12.38 49.4 12.23 49.712 11.93C50.036 11.618 50.198 11.162 50.198 10.562H52.718ZM48.29 6.422C47.762 6.422 47.33 6.608 46.994 6.98C46.67 7.352 46.484 7.826 46.436 8.402H50.072C50.072 7.79 49.928 7.31 49.64 6.962C49.364 6.602 48.914 6.422 48.29 6.422ZM67.5268 9.662C67.5268 10.586 67.3288 11.39 66.9328 12.074C66.5488 12.758 66.0148 13.28 65.3308 13.64C64.6468 14 63.8788 14.18 63.0268 14.18H62.7388C61.8868 14.18 61.1188 14 60.4348 13.64C59.7508 13.28 59.2108 12.758 58.8148 12.074C58.4308 11.39 58.2388 10.586 58.2388 9.662V9.14C58.2388 8.216 58.4308 7.412 58.8148 6.728C59.2108 6.044 59.7508 5.522 60.4348 5.162C61.1188 4.802 61.8868 4.622 62.7388 4.622H63.0268C63.8788 4.622 64.6468 4.802 65.3308 5.162C66.0148 5.522 66.5488 6.044 66.9328 6.728C67.3288 7.412 67.5268 8.216 67.5268 9.14V9.662ZM64.8628 8.672C64.8628 7.94 64.6768 7.382 64.3048 6.998C63.9448 6.614 63.4708 6.422 62.8828 6.422C62.2948 6.422 61.8148 6.614 61.4428 6.998C61.0828 7.382 60.9028 7.94 60.9028 8.672V10.13C60.9028 10.862 61.0828 11.42 61.4428 11.804C61.8148 12.188 62.2948 12.38 62.8828 12.38C63.4708 12.38 63.9448 12.188 64.3048 11.804C64.6768 11.42 64.8628 10.862 64.8628 10.13V8.672ZM74.593 2.876C74.437 2.828 74.245 2.786 74.017 2.75C73.789 2.702 73.609 2.678 73.477 2.678C73.189 2.678 72.943 2.75 72.739 2.894C72.547 3.038 72.451 3.326 72.451 3.758V4.802H74.593V6.602H72.451V14H69.823V6.602H68.743V4.802H69.823V3.596C69.823 1.796 70.747 0.895999 72.595 0.895999C72.895 0.895999 73.243 0.931999 73.639 1.004C74.035 1.076 74.353 1.166 74.593 1.274V2.876ZM85.9691 12.848C85.2971 13.736 84.4331 14.18 83.3771 14.18C82.6571 14.18 82.0091 14.006 81.4331 13.658C80.8571 13.31 80.4011 12.782 80.0651 12.074C79.7291 11.366 79.5611 10.49 79.5611 9.446V9.248C79.5611 8.252 79.7171 7.406 80.0291 6.71C80.3411 6.014 80.7611 5.492 81.2891 5.144C81.8291 4.796 82.4351 4.622 83.1071 4.622C83.6831 4.622 84.1871 4.742 84.6191 4.982C85.0631 5.222 85.4171 5.516 85.6811 5.864V1.04H88.3091V14H86.2391L85.9691 12.848ZM82.2251 10.202C82.2251 10.898 82.3871 11.438 82.7111 11.822C83.0351 12.194 83.4491 12.38 83.9531 12.38C84.4571 12.38 84.8711 12.194 85.1951 11.822C85.5191 11.438 85.6811 10.898 85.6811 10.202V8.708C85.6811 8 85.5191 7.46 85.1951 7.088C84.8711 6.716 84.4571 6.53 83.9531 6.53C83.4491 6.53 83.0351 6.716 82.7111 7.088C82.3871 7.46 82.2251 8 82.2251 8.708V10.202ZM99.2122 10.562C99.2122 11.366 99.0202 12.044 98.6362 12.596C98.2522 13.136 97.7422 13.538 97.1062 13.802C96.4822 14.054 95.7982 14.18 95.0542 14.18H94.7662C93.9142 14.18 93.1462 14 92.4622 13.64C91.7782 13.28 91.2382 12.764 90.8422 12.092C90.4582 11.408 90.2662 10.598 90.2662 9.662V9.14C90.2662 8.216 90.4642 7.412 90.8602 6.728C91.2562 6.044 91.7902 5.522 92.4622 5.162C93.1462 4.802 93.9142 4.622 94.7662 4.622H95.0542C95.7982 4.622 96.4882 4.778 97.1242 5.09C97.7602 5.39 98.2702 5.834 98.6542 6.422C99.0382 6.998 99.2302 7.682 99.2302 8.474V9.842H92.9302V10.274C92.9302 10.874 93.1042 11.378 93.4522 11.786C93.8122 12.182 94.2982 12.38 94.9102 12.38C95.4622 12.38 95.8942 12.23 96.2062 11.93C96.5302 11.618 96.6922 11.162 96.6922 10.562H99.2122ZM94.7842 6.422C94.2562 6.422 93.8242 6.608 93.4882 6.98C93.1642 7.352 92.9782 7.826 92.9302 8.402H96.5662C96.5662 7.79 96.4222 7.31 96.1342 6.962C95.8582 6.602 95.4082 6.422 94.7842 6.422ZM102.848 11.192C102.848 11.612 103.034 11.918 103.406 12.11C103.778 12.29 104.24 12.38 104.792 12.38C105.272 12.38 105.698 12.308 106.07 12.164C106.454 12.02 106.646 11.792 106.646 11.48C106.646 11.144 106.472 10.904 106.124 10.76C105.776 10.616 105.236 10.49 104.504 10.382C103.736 10.25 103.106 10.106 102.614 9.95C102.122 9.794 101.696 9.524 101.336 9.14C100.988 8.756 100.814 8.222 100.814 7.538C100.814 6.914 100.994 6.386 101.354 5.954C101.726 5.51 102.212 5.18 102.812 4.964C103.424 4.736 104.09 4.622 104.81 4.622H105.17C105.806 4.622 106.406 4.73 106.97 4.946C107.546 5.15 108.008 5.444 108.356 5.828C108.704 6.2 108.878 6.626 108.878 7.106C108.878 7.202 108.872 7.292 108.86 7.376C108.848 7.448 108.842 7.49 108.842 7.502H106.538C106.538 6.782 105.986 6.422 104.882 6.422C104.378 6.422 103.97 6.494 103.658 6.638C103.358 6.782 103.208 6.98 103.208 7.232C103.208 7.532 103.37 7.742 103.694 7.862C104.03 7.982 104.552 8.096 105.26 8.204C106.064 8.336 106.712 8.48 107.204 8.636C107.708 8.78 108.146 9.05 108.518 9.446C108.89 9.83 109.076 10.376 109.076 11.084C109.076 12.176 108.692 12.968 107.924 13.46C107.156 13.94 106.178 14.18 104.99 14.18H104.396C103.652 14.18 102.986 14.066 102.398 13.838C101.81 13.61 101.348 13.286 101.012 12.866C100.688 12.446 100.526 11.966 100.526 11.426L100.544 11.066H102.848V11.192ZM110.877 1.04H113.541V3.11H110.877V1.04ZM110.895 14V4.802H113.523V14H110.895ZM122.223 11.912C123.063 11.912 123.705 12.152 124.149 12.632C124.605 13.1 124.833 13.718 124.833 14.486C124.833 15.038 124.677 15.536 124.365 15.98C124.053 16.424 123.627 16.766 123.087 17.006C122.559 17.258 121.971 17.384 121.323 17.384H117.525C116.793 17.384 116.175 17.18 115.671 16.772C115.179 16.376 114.933 15.824 114.933 15.116C114.933 14.684 115.059 14.294 115.311 13.946C115.575 13.586 115.905 13.316 116.301 13.136C116.025 12.956 115.815 12.734 115.671 12.47C115.527 12.206 115.455 11.918 115.455 11.606C115.455 11.162 115.599 10.778 115.887 10.454C116.175 10.118 116.547 9.878 117.003 9.734C116.595 9.482 116.277 9.164 116.049 8.78C115.821 8.384 115.707 7.964 115.707 7.52C115.707 6.668 116.037 5.972 116.697 5.432C117.369 4.892 118.347 4.622 119.631 4.622H119.919C120.483 4.622 120.987 4.694 121.431 4.838C121.923 4.55 122.265 4.256 122.457 3.956C122.649 3.656 122.757 3.386 122.781 3.146H124.833C124.833 4.418 124.197 5.21 122.925 5.522L122.907 5.576C123.543 6.116 123.861 6.764 123.861 7.52C123.861 8.048 123.711 8.534 123.411 8.978C123.111 9.41 122.685 9.758 122.133 10.022C121.593 10.274 120.969 10.4 120.261 10.4H119.019C118.659 10.4 118.377 10.478 118.173 10.634C117.981 10.79 117.885 10.964 117.885 11.156C117.885 11.396 117.975 11.582 118.155 11.714C118.347 11.846 118.635 11.912 119.019 11.912H122.223ZM118.227 7.52C118.227 7.94 118.377 8.27 118.677 8.51C118.977 8.738 119.355 8.852 119.811 8.852C120.279 8.852 120.663 8.738 120.963 8.51C121.263 8.27 121.413 7.94 121.413 7.52C121.413 7.1 121.263 6.776 120.963 6.548C120.663 6.308 120.279 6.188 119.811 6.188C119.355 6.188 118.977 6.308 118.677 6.548C118.377 6.776 118.227 7.1 118.227 7.52ZM121.251 15.764C121.563 15.764 121.833 15.668 122.061 15.476C122.289 15.296 122.403 15.08 122.403 14.828C122.403 14.588 122.307 14.384 122.115 14.216C121.923 14.06 121.671 13.982 121.359 13.982H118.227C117.963 13.982 117.735 14.066 117.543 14.234C117.351 14.414 117.255 14.624 117.255 14.864C117.255 15.104 117.351 15.314 117.543 15.494C117.735 15.674 117.963 15.764 118.227 15.764H121.251ZM128.456 6.152C129.212 5.132 130.19 4.622 131.39 4.622C132.326 4.622 133.094 4.874 133.694 5.378C134.306 5.882 134.612 6.614 134.612 7.574V14H131.984V8.15C131.984 7.682 131.846 7.298 131.57 6.998C131.306 6.686 130.964 6.53 130.544 6.53C130.076 6.53 129.674 6.71 129.338 7.07C129.002 7.418 128.834 7.844 128.834 8.348V14H126.206V4.802H128.168L128.456 6.152ZM138.602 11.192C138.602 11.612 138.788 11.918 139.16 12.11C139.532 12.29 139.994 12.38 140.546 12.38C141.026 12.38 141.452 12.308 141.824 12.164C142.208 12.02 142.4 11.792 142.4 11.48C142.4 11.144 142.226 10.904 141.878 10.76C141.53 10.616 140.99 10.49 140.258 10.382C139.49 10.25 138.86 10.106 138.368 9.95C137.876 9.794 137.45 9.524 137.09 9.14C136.742 8.756 136.568 8.222 136.568 7.538C136.568 6.914 136.748 6.386 137.108 5.954C137.48 5.51 137.966 5.18 138.566 4.964C139.178 4.736 139.844 4.622 140.564 4.622H140.924C141.56 4.622 142.16 4.73 142.724 4.946C143.3 5.15 143.762 5.444 144.11 5.828C144.458 6.2 144.632 6.626 144.632 7.106C144.632 7.202 144.626 7.292 144.614 7.376C144.602 7.448 144.596 7.49 144.596 7.502H142.292C142.292 6.782 141.74 6.422 140.636 6.422C140.132 6.422 139.724 6.494 139.412 6.638C139.112 6.782 138.962 6.98 138.962 7.232C138.962 7.532 139.124 7.742 139.448 7.862C139.784 7.982 140.306 8.096 141.014 8.204C141.818 8.336 142.466 8.48 142.958 8.636C143.462 8.78 143.9 9.05 144.272 9.446C144.644 9.83 144.83 10.376 144.83 11.084C144.83 12.176 144.446 12.968 143.678 13.46C142.91 13.94 141.932 14.18 140.744 14.18H140.15C139.406 14.18 138.74 14.066 138.152 13.838C137.564 13.61 137.102 13.286 136.766 12.866C136.442 12.446 136.28 11.966 136.28 11.426L136.298 11.066H138.602V11.192Z" fill="black"/>
</svg>
