<svg width="17" height="41" viewBox="0 0 17 41" fill="none" xmlns="http://www.w3.org/2000/svg">
<path d="M9.54922 19.5C11.8203 16.9922 17 10.9141 17 7.5C17 3.35938 13.1927 0 8.5 0C3.80729 0 0 3.35938 0 7.5C0 10.9141 5.17969 16.9922 7.45078 19.5C7.99531 20.0977 9.00469 20.0977 9.54922 19.5ZM8.5 5C9.25145 5 9.97212 5.26339 10.5035 5.73223C11.0348 6.20107 11.3333 6.83696 11.3333 7.5C11.3333 8.16304 11.0348 8.79893 10.5035 9.26777C9.97212 9.73661 9.25145 10 8.5 10C7.74855 10 7.02788 9.73661 6.49653 9.26777C5.96518 8.79893 5.66667 8.16304 5.66667 7.5C5.66667 6.83696 5.96518 6.20107 6.49653 5.73223C7.02788 5.26339 7.74855 5 8.5 5Z" fill="#D7D7D7"/>
<path d="M6.768 33.262V38.75H5.984V34.182H5.936L4.04 38.75H3.376L1.488 34.182H1.448V38.75H0.736V33.262H1.968L3.736 37.582H3.768L5.544 33.262H6.768ZM9.77981 34.582C10.3185 34.582 10.7185 34.6887 10.9798 34.902C11.2465 35.1153 11.3798 35.4247 11.3798 35.83V37.95C11.3798 38.046 11.4011 38.118 11.4438 38.166C11.4865 38.2087 11.5398 38.23 11.6038 38.23C11.7265 38.23 11.8491 38.1927 11.9718 38.118V38.67C11.7905 38.7767 11.5851 38.83 11.3558 38.83C11.1265 38.83 10.9558 38.766 10.8438 38.638C10.7318 38.5047 10.6705 38.3233 10.6598 38.094C10.3291 38.5847 9.85181 38.83 9.22781 38.83C8.77981 38.83 8.44381 38.734 8.21981 38.542C8.00115 38.3447 7.89181 38.0353 7.89181 37.614C7.89181 37.2833 7.97715 37.0247 8.14781 36.838C8.31848 36.646 8.60115 36.5073 8.99581 36.422C9.39048 36.3367 9.93448 36.294 10.6278 36.294V35.918C10.6278 35.646 10.5478 35.4567 10.3878 35.35C10.2278 35.238 9.99581 35.182 9.69181 35.182C9.40381 35.182 9.17981 35.238 9.01981 35.35C8.85981 35.462 8.77981 35.6193 8.77981 35.822V35.918H8.04381C8.03315 35.8433 8.02781 35.7553 8.02781 35.654C8.02781 35.4673 8.10248 35.2913 8.25181 35.126C8.40115 34.9607 8.60381 34.83 8.85981 34.734C9.11581 34.6327 9.39848 34.582 9.70781 34.582H9.77981ZM10.6278 36.878C10.0678 36.878 9.64381 36.9073 9.35581 36.966C9.07315 37.0193 8.88381 37.102 8.78781 37.214C8.69181 37.326 8.64381 37.4807 8.64381 37.678C8.64381 38.046 8.92381 38.23 9.48381 38.23C9.68115 38.23 9.86781 38.182 10.0438 38.086C10.2198 37.9847 10.3611 37.8433 10.4678 37.662C10.5745 37.4807 10.6278 37.2727 10.6278 37.038V36.878ZM14.7795 34.582C15.2968 34.582 15.7022 34.7713 15.9955 35.15C16.2888 35.5287 16.4355 36.0487 16.4355 36.71V36.798C16.4355 37.4273 16.2888 37.9233 15.9955 38.286C15.7075 38.6487 15.3022 38.83 14.7795 38.83C14.2782 38.83 13.8862 38.63 13.6035 38.23V40.198H12.8515V34.662H13.4115C13.4488 34.8327 13.4835 35.0193 13.5155 35.222C13.8195 34.7953 14.2408 34.582 14.7795 34.582ZM14.6435 35.182C14.2808 35.182 14.0142 35.3073 13.8435 35.558C13.6782 35.8087 13.5955 36.19 13.5955 36.702C13.5955 37.2247 13.6808 37.6113 13.8515 37.862C14.0275 38.1073 14.2915 38.23 14.6435 38.23C14.9955 38.23 15.2568 38.1047 15.4275 37.854C15.5982 37.6033 15.6835 37.2193 15.6835 36.702C15.6835 36.1793 15.5955 35.7953 15.4195 35.55C15.2488 35.3047 14.9902 35.182 14.6435 35.182Z" fill="#D0D0D0"/>
</svg>
