<svg width="27" height="27" viewBox="0 0 27 27" fill="none" xmlns="http://www.w3.org/2000/svg">
<path d="M16.0312 21.9375C16.0312 22.6088 15.7646 23.2527 15.2899 23.7274C14.8152 24.2021 14.1713 24.4688 13.5 24.4688C12.8287 24.4688 12.1848 24.2021 11.7101 23.7274C11.2354 23.2527 10.9688 22.6088 10.9688 21.9375C10.9688 21.2662 11.2354 20.6223 11.7101 20.1476C12.1848 19.6729 12.8287 19.4062 13.5 19.4062C14.1713 19.4062 14.8152 19.6729 15.2899 20.1476C15.7646 20.6223 16.0312 21.2662 16.0312 21.9375ZM16.0312 13.5C16.0312 14.1713 15.7646 14.8152 15.2899 15.2899C14.8152 15.7646 14.1713 16.0312 13.5 16.0312C12.8287 16.0312 12.1848 15.7646 11.7101 15.2899C11.2354 14.8152 10.9688 14.1713 10.9688 13.5C10.9688 12.8287 11.2354 12.1848 11.7101 11.7101C12.1848 11.2354 12.8287 10.9688 13.5 10.9688C14.1713 10.9688 14.8152 11.2354 15.2899 11.7101C15.7646 12.1848 16.0312 12.8287 16.0312 13.5ZM16.0312 5.0625C16.0312 5.73383 15.7646 6.37766 15.2899 6.85236C14.8152 7.32707 14.1713 7.59375 13.5 7.59375C12.8287 7.59375 12.1848 7.32707 11.7101 6.85236C11.2354 6.37766 10.9688 5.73383 10.9688 5.0625C10.9688 4.39117 11.2354 3.74734 11.7101 3.27264C12.1848 2.79793 12.8287 2.53125 13.5 2.53125C14.1713 2.53125 14.8152 2.79793 15.2899 3.27264C15.7646 3.74734 16.0312 4.39117 16.0312 5.0625Z" fill="#3A312E"/>
</svg>
