<svg width="23" height="21" viewBox="0 0 23 21" fill="none" xmlns="http://www.w3.org/2000/svg">
<path fill-rule="evenodd" clip-rule="evenodd" d="M11.5 5.78817C13.4938 3.91786 18.4776 7.19255 11.5 11.4017C4.52237 7.19255 9.50618 3.91917 11.5 5.7908V5.78817Z" fill="#8D4337"/>
<path d="M2.875 2.625C2.875 1.92881 3.1779 1.26113 3.71707 0.768845C4.25623 0.276562 4.9875 0 5.75 0L17.25 0C18.0125 0 18.7438 0.276562 19.2829 0.768845C19.8221 1.26113 20.125 1.92881 20.125 2.625V20.3438C20.1249 20.4625 20.0896 20.5789 20.0228 20.6807C19.9559 20.7826 19.8601 20.8659 19.7455 20.922C19.6309 20.978 19.5018 21.0046 19.3719 20.9989C19.242 20.9932 19.1163 20.9555 19.0081 20.8898L11.5 17.1951L3.99194 20.8898C3.8837 20.9555 3.75796 20.9932 3.62809 20.9989C3.49823 21.0046 3.36912 20.978 3.2545 20.922C3.13988 20.8659 3.04406 20.7826 2.97723 20.6807C2.9104 20.5789 2.87507 20.4625 2.875 20.3438V2.625ZM5.75 1.3125C5.36875 1.3125 5.00312 1.45078 4.73353 1.69692C4.46395 1.94306 4.3125 2.2769 4.3125 2.625V19.1179L11.1018 15.8602C11.2198 15.7886 11.3583 15.7503 11.5 15.7503C11.6417 15.7503 11.7802 15.7886 11.8982 15.8602L18.6875 19.1179V2.625C18.6875 2.2769 18.536 1.94306 18.2665 1.69692C17.9969 1.45078 17.6312 1.3125 17.25 1.3125H5.75Z" fill="#8D4337"/>
</svg>
