<svg width="42" height="46" viewBox="0 0 42 46" fill="none" xmlns="http://www.w3.org/2000/svg">
<path d="M2.512 38.432C3.11467 38.432 3.58667 38.5653 3.928 38.832C4.27467 39.0987 4.448 39.4773 4.448 39.968V40.064H3.664V39.944C3.664 39.688 3.56 39.4907 3.352 39.352C3.144 39.2133 2.86933 39.144 2.528 39.144C2.14933 39.144 1.85333 39.208 1.64 39.336C1.432 39.4587 1.328 39.6373 1.328 39.872C1.328 40.048 1.38667 40.192 1.504 40.304C1.62667 40.416 1.776 40.504 1.952 40.568C2.13333 40.632 2.38133 40.704 2.696 40.784C3.10133 40.8907 3.42933 40.9947 3.68 41.096C3.93067 41.1973 4.144 41.3493 4.32 41.552C4.50133 41.7547 4.592 42.024 4.592 42.36C4.592 42.9573 4.408 43.3947 4.04 43.672C3.67733 43.944 3.16533 44.08 2.504 44.08C1.84267 44.08 1.328 43.9413 0.96 43.664C0.597333 43.3813 0.416 42.9733 0.416 42.44L0.424 42.28H1.208L1.2 42.448C1.2 42.7573 1.31467 42.9893 1.544 43.144C1.77867 43.2933 2.10133 43.368 2.512 43.368C2.912 43.368 3.22667 43.296 3.456 43.152C3.69067 43.0027 3.808 42.8 3.808 42.544C3.808 42.3413 3.744 42.1787 3.616 42.056C3.49333 41.928 3.336 41.8293 3.144 41.76C2.95733 41.6907 2.70133 41.6133 2.376 41.528C1.976 41.4213 1.656 41.32 1.416 41.224C1.176 41.128 0.970667 40.9813 0.8 40.784C0.629333 40.5813 0.544 40.3173 0.544 39.992C0.544 39.464 0.722667 39.072 1.08 38.816C1.43733 38.56 1.91467 38.432 2.512 38.432ZM6.43163 40.424C6.76763 40.0293 7.18896 39.832 7.69563 39.832C8.14363 39.832 8.49563 39.952 8.75163 40.192C9.00763 40.432 9.13563 40.784 9.13563 41.248V44H8.38363V41.384C8.38363 40.7493 8.09563 40.432 7.51963 40.432C7.32763 40.432 7.14896 40.4827 6.98363 40.584C6.81829 40.6853 6.68496 40.824 6.58363 41C6.48229 41.1707 6.43163 41.36 6.43163 41.568V44H5.67963V38.24H6.43163V40.424ZM12.0538 39.832C12.6245 39.832 13.0805 40.008 13.4218 40.36C13.7631 40.712 13.9338 41.1947 13.9338 41.808V42.104C13.9338 42.7173 13.7658 43.2 13.4298 43.552C13.0938 43.904 12.6351 44.08 12.0538 44.08C11.4725 44.08 11.0138 43.904 10.6778 43.552C10.3418 43.2 10.1738 42.7173 10.1738 42.104V41.808C10.1738 41.1947 10.3445 40.712 10.6858 40.36C11.0271 40.008 11.4831 39.832 12.0538 39.832ZM12.0538 40.432C11.6965 40.432 11.4191 40.5547 11.2218 40.8C11.0245 41.0453 10.9258 41.4053 10.9258 41.88V42.032C10.9258 42.496 11.0218 42.8533 11.2138 43.104C11.4111 43.3547 11.6911 43.48 12.0538 43.48C12.4058 43.48 12.6805 43.3573 12.8778 43.112C13.0805 42.8613 13.1818 42.5013 13.1818 42.032V41.88C13.1818 41.416 13.0831 41.0587 12.8858 40.808C12.6938 40.5573 12.4165 40.432 12.0538 40.432ZM16.8556 39.832C17.2342 39.832 17.5302 39.9547 17.7436 40.2C17.9569 40.44 18.0636 40.744 18.0636 41.112L18.0396 41.416H17.3756V41.24C17.3756 41.08 17.3356 40.9387 17.2556 40.816C17.1756 40.6933 17.0742 40.6 16.9516 40.536C16.8289 40.4667 16.7062 40.432 16.5836 40.432C16.3276 40.432 16.1276 40.5333 15.9836 40.736C15.8396 40.9387 15.7676 41.2133 15.7676 41.56V44H15.0156V39.912H15.5516L15.6636 40.52C15.6956 40.4133 15.7676 40.3067 15.8796 40.2C15.9916 40.0933 16.1302 40.0053 16.2956 39.936C16.4662 39.8667 16.6529 39.832 16.8556 39.832ZM19.8174 39.912H20.7694V40.512H19.8174V42.952C19.8174 43.144 19.8548 43.2827 19.9294 43.368C20.0041 43.4533 20.1188 43.496 20.2734 43.496C20.4121 43.496 20.5774 43.456 20.7694 43.376V43.936C20.5774 44.032 20.3294 44.08 20.0254 44.08C19.7108 44.08 19.4708 43.9867 19.3054 43.8C19.1454 43.6133 19.0654 43.3173 19.0654 42.912V40.512H18.6174V39.912H19.0894L19.3454 38.608H19.8174V39.912ZM22.4871 38.24V44H21.7351V38.24H22.4871ZM24.6117 38.24V38.936H23.8277V38.24H24.6117ZM24.5957 39.912V44H23.8437V39.912H24.5957ZM27.4818 39.832C27.7858 39.832 28.0551 39.88 28.2898 39.976C28.5298 40.072 28.7138 40.2053 28.8418 40.376C28.9751 40.5467 29.0418 40.736 29.0418 40.944L29.0338 41.088H28.2898V41.016C28.2898 40.6267 27.9885 40.432 27.3858 40.432C26.7885 40.432 26.4898 40.6107 26.4898 40.968C26.4898 41.1333 26.5751 41.256 26.7458 41.336C26.9165 41.4107 27.1778 41.4827 27.5298 41.552C27.8658 41.6213 28.1405 41.6933 28.3538 41.768C28.5725 41.8427 28.7565 41.96 28.9058 42.12C29.0605 42.28 29.1378 42.496 29.1378 42.768C29.1378 43.2053 28.9885 43.5333 28.6898 43.752C28.3911 43.9707 27.9618 44.08 27.4018 44.08H27.2818C26.9458 44.08 26.6525 44.0293 26.4018 43.928C26.1511 43.8213 25.9565 43.68 25.8178 43.504C25.6845 43.3227 25.6205 43.12 25.6258 42.896V42.72H26.3698V42.8C26.3698 43.2533 26.7511 43.48 27.5138 43.48C27.7378 43.48 27.9378 43.4293 28.1138 43.328C28.2951 43.2267 28.3858 43.088 28.3858 42.912C28.3858 42.7627 28.3351 42.6453 28.2338 42.56C28.1378 42.4747 28.0178 42.4107 27.8738 42.368C27.7298 42.3253 27.5298 42.2827 27.2738 42.24C26.9431 42.176 26.6765 42.112 26.4738 42.048C26.2711 41.9787 26.0978 41.864 25.9538 41.704C25.8098 41.544 25.7378 41.3253 25.7378 41.048C25.7378 40.6693 25.8871 40.3733 26.1858 40.16C26.4845 39.9413 26.8925 39.832 27.4098 39.832H27.4818ZM31.0753 39.912H32.0273V40.512H31.0753V42.952C31.0753 43.144 31.1126 43.2827 31.1873 43.368C31.2619 43.4533 31.3766 43.496 31.5312 43.496C31.6699 43.496 31.8353 43.456 32.0273 43.376V43.936C31.8353 44.032 31.5873 44.08 31.2833 44.08C30.9686 44.08 30.7286 43.9867 30.5633 43.8C30.4033 43.6133 30.3233 43.3173 30.3233 42.912V40.512H29.8753V39.912H30.3473L30.6033 38.608H31.0753V39.912ZM34.6009 39.832C34.9369 39.832 35.2329 39.904 35.4889 40.048C35.7502 40.1867 35.9529 40.3867 36.0969 40.648C36.2409 40.9093 36.3129 41.2133 36.3129 41.56V42.128H33.4569C33.4675 42.56 33.5689 42.8933 33.7609 43.128C33.9529 43.3627 34.2382 43.48 34.6169 43.48C34.9529 43.48 35.2009 43.3813 35.3609 43.184C35.5209 42.9867 35.6009 42.752 35.6009 42.48H36.3129C36.3129 42.8 36.2382 43.08 36.0889 43.32C35.9449 43.56 35.7422 43.7467 35.4809 43.88C35.2249 44.0133 34.9315 44.08 34.6009 44.08H34.5689C33.9929 44.08 33.5369 43.896 33.2009 43.528C32.8702 43.1547 32.7049 42.6587 32.7049 42.04V41.88C32.7049 41.4747 32.7795 41.1173 32.9289 40.808C33.0782 40.4987 33.2915 40.2587 33.5689 40.088C33.8462 39.9173 34.1715 39.832 34.5449 39.832H34.6009ZM34.5609 40.432C34.2569 40.432 34.0089 40.5253 33.8169 40.712C33.6302 40.8987 33.5155 41.176 33.4729 41.544H35.5689V41.448C35.5689 41.144 35.4755 40.8987 35.2889 40.712C35.1075 40.5253 34.8649 40.432 34.5609 40.432ZM40.7422 44H40.1822C40.1449 43.8293 40.1102 43.6427 40.0782 43.44C39.7742 43.8667 39.3529 44.08 38.8142 44.08C38.3022 44.08 37.8969 43.8907 37.5982 43.512C37.3049 43.1333 37.1582 42.6133 37.1582 41.952V41.864C37.1582 41.24 37.3022 40.7467 37.5902 40.384C37.8835 40.016 38.2915 39.832 38.8142 39.832C39.3209 39.832 39.7129 40.032 39.9902 40.432V38.24H40.7422V44ZM38.9502 40.432C38.5929 40.432 38.3289 40.5573 38.1582 40.808C37.9929 41.0533 37.9102 41.4373 37.9102 41.96C37.9102 42.4827 37.9955 42.8667 38.1662 43.112C38.3369 43.3573 38.5982 43.48 38.9502 43.48C39.6489 43.48 39.9982 42.9733 39.9982 41.96C39.9982 41.4373 39.9102 41.0533 39.7342 40.808C39.5582 40.5573 39.2969 40.432 38.9502 40.432Z" fill="#716966"/>
<path fill-rule="evenodd" clip-rule="evenodd" d="M15.0625 2.625C15.0625 1.92881 15.3489 1.26113 15.8588 0.768845C16.3687 0.276562 17.0602 0 17.7812 0L23.2188 0C23.9398 0 24.6313 0.276562 25.1412 0.768845C25.6511 1.26113 25.9375 1.92881 25.9375 2.625V4.375C25.9375 5.07119 25.6511 5.73887 25.1412 6.23116C24.6313 6.72344 23.9398 7 23.2188 7H17.7812C17.0602 7 16.3687 6.72344 15.8588 6.23116C15.3489 5.73887 15.0625 5.07119 15.0625 4.375V2.625ZM24.125 2.625C24.125 2.39294 24.0295 2.17038 23.8596 2.00628C23.6896 1.84219 23.4591 1.75 23.2188 1.75H17.7812C17.5409 1.75 17.3104 1.84219 17.1404 2.00628C16.9705 2.17038 16.875 2.39294 16.875 2.625V4.375C16.875 4.60706 16.9705 4.82962 17.1404 4.99372C17.3104 5.15781 17.5409 5.25 17.7812 5.25H23.2188C23.4591 5.25 23.6896 5.15781 23.8596 4.99372C24.0295 4.82962 24.125 4.60706 24.125 4.375V2.625Z" fill="#3A312E"/>
<path d="M11.4375 2.625H13.25V4.375H11.4375C10.9568 4.375 10.4958 4.55937 10.1559 4.88756C9.81596 5.21575 9.625 5.66087 9.625 6.125V24.5C9.625 24.9641 9.81596 25.4092 10.1559 25.7374C10.4958 26.0656 10.9568 26.25 11.4375 26.25H29.5625C30.0432 26.25 30.5042 26.0656 30.8441 25.7374C31.184 25.4092 31.375 24.9641 31.375 24.5V6.125C31.375 5.66087 31.184 5.21575 30.8441 4.88756C30.5042 4.55937 30.0432 4.375 29.5625 4.375H27.75V2.625H29.5625C30.5239 2.625 31.4459 2.99375 32.1258 3.65013C32.8056 4.3065 33.1875 5.19674 33.1875 6.125V24.5C33.1875 25.4283 32.8056 26.3185 32.1258 26.9749C31.4459 27.6313 30.5239 28 29.5625 28H11.4375C10.4761 28 9.55406 27.6313 8.87424 26.9749C8.19442 26.3185 7.8125 25.4283 7.8125 24.5V6.125C7.8125 5.19674 8.19442 4.3065 8.87424 3.65013C9.55406 2.99375 10.4761 2.625 11.4375 2.625Z" fill="#3A312E"/>
<path d="M20.5 12.2184C23.516 9.29067 31.0578 14.4129 20.5 20.9999C9.94218 14.4129 17.484 9.29242 20.5 12.2184Z" fill="#3A312E"/>
</svg>
