<svg width="18" height="21" viewBox="0 0 18 21" fill="none" xmlns="http://www.w3.org/2000/svg">
<path d="M1.92436e-07 20.3438C-9.11286e-05 20.4577 0.0323215 20.5697 0.0940478 20.6688C0.155774 20.7678 0.244686 20.8505 0.352032 20.9086C0.459377 20.9668 0.581456 20.9984 0.706251 21.0004C0.831046 21.0024 0.954255 20.9746 1.06375 20.9199L8.625 17.1531L16.1863 20.9199C16.2957 20.9746 16.419 21.0024 16.5437 21.0004C16.6685 20.9984 16.7906 20.9668 16.898 20.9086C17.0053 20.8505 17.0942 20.7678 17.156 20.6688C17.2177 20.5697 17.2501 20.4577 17.25 20.3438V2.625C17.25 1.92881 16.9471 1.26113 16.4079 0.768845C15.8688 0.276562 15.1375 0 14.375 0L2.875 0C2.1125 0 1.38124 0.276562 0.842068 0.768845C0.302901 1.26113 1.92436e-07 1.92881 1.92436e-07 2.625V20.3438ZM8.625 5.78813C10.6188 3.91781 15.6026 7.1925 8.625 11.4017C1.64738 7.1925 6.63119 3.91913 8.625 5.79075V5.78813Z" fill="#8D4337"/>
</svg>
