<svg width="31" height="44" viewBox="0 0 31 44" fill="none" xmlns="http://www.w3.org/2000/svg">
<path d="M10.512 36.432C11.1147 36.432 11.5867 36.5653 11.928 36.832C12.2747 37.0987 12.448 37.4773 12.448 37.968V38.064H11.664V37.944C11.664 37.688 11.56 37.4907 11.352 37.352C11.144 37.2133 10.8693 37.144 10.528 37.144C10.1493 37.144 9.85333 37.208 9.64 37.336C9.432 37.4587 9.328 37.6373 9.328 37.872C9.328 38.048 9.38667 38.192 9.504 38.304C9.62667 38.416 9.776 38.504 9.952 38.568C10.1333 38.632 10.3813 38.704 10.696 38.784C11.1013 38.8907 11.4293 38.9947 11.68 39.096C11.9307 39.1973 12.144 39.3493 12.32 39.552C12.5013 39.7547 12.592 40.024 12.592 40.36C12.592 40.9573 12.408 41.3947 12.04 41.672C11.6773 41.944 11.1653 42.08 10.504 42.08C9.84267 42.08 9.328 41.9413 8.96 41.664C8.59733 41.3813 8.416 40.9733 8.416 40.44L8.424 40.28H9.208L9.2 40.448C9.2 40.7573 9.31467 40.9893 9.544 41.144C9.77867 41.2933 10.1013 41.368 10.512 41.368C10.912 41.368 11.2267 41.296 11.456 41.152C11.6907 41.0027 11.808 40.8 11.808 40.544C11.808 40.3413 11.744 40.1787 11.616 40.056C11.4933 39.928 11.336 39.8293 11.144 39.76C10.9573 39.6907 10.7013 39.6133 10.376 39.528C9.976 39.4213 9.656 39.32 9.416 39.224C9.176 39.128 8.97067 38.9813 8.8 38.784C8.62933 38.5813 8.544 38.3173 8.544 37.992C8.544 37.464 8.72267 37.072 9.08 36.816C9.43733 36.56 9.91467 36.432 10.512 36.432ZM15.3116 37.832C15.8823 37.832 16.3383 38.008 16.6796 38.36C17.021 38.712 17.1916 39.1947 17.1916 39.808V40.104C17.1916 40.7173 17.0236 41.2 16.6876 41.552C16.3516 41.904 15.893 42.08 15.3116 42.08C14.7303 42.08 14.2716 41.904 13.9356 41.552C13.5996 41.2 13.4316 40.7173 13.4316 40.104V39.808C13.4316 39.1947 13.6023 38.712 13.9436 38.36C14.285 38.008 14.741 37.832 15.3116 37.832ZM15.3116 38.432C14.9543 38.432 14.677 38.5547 14.4796 38.8C14.2823 39.0453 14.1836 39.4053 14.1836 39.88V40.032C14.1836 40.496 14.2796 40.8533 14.4716 41.104C14.669 41.3547 14.949 41.48 15.3116 41.48C15.6636 41.48 15.9383 41.3573 16.1356 41.112C16.3383 40.8613 16.4396 40.5013 16.4396 40.032V39.88C16.4396 39.416 16.341 39.0587 16.1436 38.808C15.9516 38.5573 15.6743 38.432 15.3116 38.432ZM20.1134 37.832C20.492 37.832 20.788 37.9547 21.0014 38.2C21.2147 38.44 21.3214 38.744 21.3214 39.112L21.2974 39.416H20.6334V39.24C20.6334 39.08 20.5934 38.9387 20.5134 38.816C20.4334 38.6933 20.332 38.6 20.2094 38.536C20.0867 38.4667 19.964 38.432 19.8414 38.432C19.5854 38.432 19.3854 38.5333 19.2414 38.736C19.0974 38.9387 19.0254 39.2133 19.0254 39.56V42H18.2734V37.912H18.8094L18.9214 38.52C18.9534 38.4133 19.0254 38.3067 19.1374 38.2C19.2494 38.0933 19.388 38.0053 19.5534 37.936C19.724 37.8667 19.9107 37.832 20.1134 37.832ZM23.0753 37.912H24.0273V38.512H23.0753V40.952C23.0753 41.144 23.1126 41.2827 23.1873 41.368C23.2619 41.4533 23.3766 41.496 23.5312 41.496C23.6699 41.496 23.8353 41.456 24.0273 41.376V41.936C23.8353 42.032 23.5873 42.08 23.2833 42.08C22.9686 42.08 22.7286 41.9867 22.5633 41.8C22.4033 41.6133 22.3233 41.3173 22.3233 40.912V38.512H21.8753V37.912H22.3473L22.6033 36.608H23.0753V37.912Z" fill="#716966"/>
<path d="M6.41486 1.13624C6.41486 0.834893 6.30225 0.545885 6.10178 0.332798C5.90132 0.119711 5.62944 0 5.34594 0C5.06245 0 4.79057 0.119711 4.59011 0.332798C4.38964 0.545885 4.27703 0.834893 4.27703 1.13624V21.1182L1.82706 18.5117C1.72768 18.406 1.60969 18.3222 1.47984 18.2651C1.34999 18.2079 1.21082 18.1785 1.07027 18.1785C0.929719 18.1785 0.790546 18.2079 0.660695 18.2651C0.530844 18.3222 0.412858 18.406 0.313475 18.5117C0.214091 18.6173 0.135255 18.7427 0.0814694 18.8808C0.0276833 19.0188 0 19.1667 0 19.3161C0 19.4655 0.0276833 19.6135 0.0814694 19.7515C0.135255 19.8895 0.214091 20.0149 0.313475 20.1206L4.58915 24.6633L4.60412 24.6792C4.80481 24.8872 5.0747 25.0025 5.355 25C5.6353 24.9974 5.90329 24.8772 6.1006 24.6656L10.3763 20.1206C10.577 19.9075 10.6899 19.6185 10.6901 19.3169C10.6903 19.0154 10.5778 18.7262 10.3773 18.5128C10.1769 18.2995 9.90496 18.1795 9.62131 18.1793C9.33766 18.179 9.06554 18.2986 8.86483 18.5117L6.41486 21.1182V1.13624ZM14.9662 2.27249C14.6827 2.27249 14.4108 2.15278 14.2104 1.93969C14.0099 1.7266 13.8973 1.43759 13.8973 1.13624C13.8973 0.834893 14.0099 0.545885 14.2104 0.332798C14.4108 0.119711 14.6827 0 14.9662 0H17.1041C17.3875 0 17.6594 0.119711 17.8599 0.332798C18.0604 0.545885 18.173 0.834893 18.173 1.13624C18.173 1.43759 18.0604 1.7266 17.8599 1.93969C17.6594 2.15278 17.3875 2.27249 17.1041 2.27249H14.9662ZM14.9662 9.08994C14.6827 9.08994 14.4108 8.97023 14.2104 8.75715C14.0099 8.54406 13.8973 8.25505 13.8973 7.9537C13.8973 7.65235 14.0099 7.36334 14.2104 7.15026C14.4108 6.93717 14.6827 6.81746 14.9662 6.81746H21.3797C21.6632 6.81746 21.9351 6.93717 22.1356 7.15026C22.336 7.36334 22.4486 7.65235 22.4486 7.9537C22.4486 8.25505 22.336 8.54406 22.1356 8.75715C21.9351 8.97023 21.6632 9.08994 21.3797 9.08994H14.9662ZM14.9662 15.9074C14.6827 15.9074 14.4108 15.7877 14.2104 15.5746C14.0099 15.3615 13.8973 15.0725 13.8973 14.7712C13.8973 14.4698 14.0099 14.1808 14.2104 13.9677C14.4108 13.7546 14.6827 13.6349 14.9662 13.6349H25.6554C25.9389 13.6349 26.2108 13.7546 26.4112 13.9677C26.6117 14.1808 26.7243 14.4698 26.7243 14.7712C26.7243 15.0725 26.6117 15.3615 26.4112 15.5746C26.2108 15.7877 25.9389 15.9074 25.6554 15.9074H14.9662ZM13.8973 21.5886C13.8973 21.89 14.0099 22.179 14.2104 22.3921C14.4108 22.6052 14.6827 22.7249 14.9662 22.7249H29.9311C30.2146 22.7249 30.4865 22.6052 30.6869 22.3921C30.8874 22.179 31 21.89 31 21.5886C31 21.2873 30.8874 20.9983 30.6869 20.7852C30.4865 20.5721 30.2146 20.4524 29.9311 20.4524H14.9662C14.6827 20.4524 14.4108 20.5721 14.2104 20.7852C14.0099 20.9983 13.8973 21.2873 13.8973 21.5886Z" fill="#3A312E"/>
</svg>
