<svg width="18" height="16" viewBox="0 0 18 16" fill="none" xmlns="http://www.w3.org/2000/svg">
<path d="M4.1875 4.83749C3.9625 5.0375 3.74625 5.24 3.54 5.44625C2.76456 6.22586 2.0694 7.0814 1.465 8L1.70875 8.35999C2.1275 8.96 2.74625 9.76 3.54 10.5537C5.15125 12.165 7.35125 13.625 10 13.625C10.895 13.625 11.7375 13.4587 12.525 13.175L13.4875 14.14C12.3874 14.6207 11.2005 14.8708 10 14.875C3.75 14.875 0 8 0 8C0 8 1.17375 5.84875 3.30125 3.9525L4.18625 4.83875L4.1875 4.83749ZM17.0575 15.9425L2.0575 0.942495L2.9425 0.0574951L17.9425 15.0575L17.0575 15.9425Z" fill="#8D4337"/>
</svg>
