<svg width="14" height="12" viewBox="0 0 14 12" fill="none" xmlns="http://www.w3.org/2000/svg">
<path d="M10.6988 11.0475C12.825 9.15 14 7 14 7C14 7 10.25 0.125 4.00001 0.125C2.7995 0.129134 1.61258 0.379281 0.512512 0.86L1.47501 1.82375C2.28431 1.52894 3.1387 1.3771 4.00001 1.375C6.65001 1.375 8.84876 2.835 10.46 4.44625C11.2355 5.22586 11.9306 6.08141 12.535 7C12.4625 7.10875 12.3825 7.22875 12.2913 7.36C11.8725 7.96 11.2538 8.76 10.46 9.55375C10.2538 9.76 10.0388 9.96375 9.81376 10.1613L10.6988 11.0475Z" fill="#8D4337"/>
</svg>
