<svg width="10" height="10" viewBox="0 0 10 10" fill="none" xmlns="http://www.w3.org/2000/svg">
<path d="M9.12123 6.46995C9.40018 5.68976 9.45184 4.84639 9.2702 4.03798C9.08856 3.22957 8.68109 2.48936 8.09521 1.90348C7.50933 1.3176 6.76912 0.91013 5.96071 0.728492C5.1523 0.546853 4.30893 0.598512 3.52874 0.877455L4.55749 1.9062C5.03787 1.83745 5.52767 1.88151 5.98807 2.03491C6.44847 2.18831 6.86682 2.44682 7.20997 2.78997C7.55312 3.13312 7.81163 3.55147 7.96503 4.01187C8.11843 4.47227 8.1625 4.96207 8.09374 5.44245L9.12123 6.46995ZM5.44249 8.09371L6.46998 9.1212C5.68979 9.40015 4.84642 9.45181 4.03801 9.27017C3.2296 9.08853 2.48939 8.68106 1.90351 8.09518C1.31763 7.5093 0.91016 6.76909 0.728522 5.96068C0.546884 5.15227 0.598542 4.3089 0.877485 3.5287L1.90624 4.55745C1.83748 5.03784 1.88154 5.52764 2.03494 5.98804C2.18834 6.44844 2.44685 6.86679 2.79 7.20994C3.13315 7.55309 3.5515 7.8116 4.0119 7.965C4.4723 8.1184 4.9621 8.16246 5.44249 8.09371Z" fill="#8D4337"/>
</svg>
